HIERARCHY
ROOT Hips
{
	OFFSET	0.00	0.00	0.00
	CHANNELS 6 Xposition Yposition Zposition Zrotation Xrotation Yrotation
	JOINT LeftUpLeg
	{
		OFFSET	 0.126116	-0.014019	-0.065224
		CHANNELS 3 Zrotation Xrotation Yrotation
		JOINT LeftLeg
		{
			OFFSET	 0.000000	 0.000000	 0.569914
			CHANNELS 3 Zrotation Xrotation Yrotation
			JOINT LeftFoot
			{
				OFFSET	 0.000000	 0.000000	 0.544423
				CHANNELS 3 Zrotation Xrotation Yrotation
				JOINT LeftToeBase
				{
					OFFSET	 0.000000	 0.000000	 0.207117
					CHANNELS 3 Zrotation Xrotation Yrotation
					End Site
					{
						OFFSET	 0.000000	 0.000000	 0.207117
					}
				}
			}
		}
	}
	JOINT RightUpLeg
	{
		OFFSET	-0.124023	-0.008373	-0.065224
		CHANNELS 3 Zrotation Xrotation Yrotation
		JOINT RightLeg
		{
			OFFSET	 0.000000	 0.000000	 0.570047
			CHANNELS 3 Zrotation Xrotation Yrotation
			JOINT RightFoot
			{
				OFFSET	 0.000000	 0.000000	 0.544354
				CHANNELS 3 Zrotation Xrotation Yrotation
				JOINT RightToeBase
				{
					OFFSET	 0.000000	 0.000000	 0.207540
					CHANNELS 3 Zrotation Xrotation Yrotation
					End Site
					{
						OFFSET	 0.000000	 0.000000	 0.207540
					}
				}
			}
		}
	}
	JOINT Spine
	{
		OFFSET	 0.000184	-0.007763	 0.117403
		CHANNELS 3 Zrotation Xrotation Yrotation
		JOINT Spine1
		{
			OFFSET	 0.000000	 0.000000	 0.137269
			CHANNELS 3 Zrotation Xrotation Yrotation
			JOINT Spine2
			{
				OFFSET	 0.000000	 0.000000	 0.156879
				CHANNELS 3 Zrotation Xrotation Yrotation
				JOINT LeftShoulder
				{
					OFFSET	 0.080501	-0.002496	 0.160144
					CHANNELS 3 Zrotation Xrotation Yrotation
					JOINT LeftArm
					{
						OFFSET	 0.000000	 0.000000	 0.164363
						CHANNELS 3 Zrotation Xrotation Yrotation
						JOINT LeftForeArm
						{
							OFFSET	 0.000000	 0.000000	 0.364576
							CHANNELS 3 Zrotation Xrotation Yrotation
							JOINT LeftHand
							{
								OFFSET	 0.000000	 0.000000	 0.360812
								CHANNELS 3 Zrotation Xrotation Yrotation
								JOINT LeftHandIndex1
								{
									OFFSET	 0.000000	 0.000000	 0.086006
									CHANNELS 3 Zrotation Xrotation Yrotation
									JOINT LeftHandIndex2
									{
										OFFSET	 0.000000	 0.000000	 0.047236
										CHANNELS 3 Zrotation Xrotation Yrotation
										JOINT LeftHandIndex3
										{
											OFFSET	-0.004284	-0.000551	 0.038166
											CHANNELS 3 Zrotation Xrotation Yrotation
											End Site
											{
												OFFSET	-0.004284	-0.000551	 0.038166
											}
										}
									}
								}
							}
						}
					}
				}
				JOINT Neck
				{
					OFFSET	 0.000000	 0.000000	 0.176489
					CHANNELS 3 Zrotation Xrotation Yrotation
					JOINT Head
					{
						OFFSET	 0.000000	-0.001747	 0.077940
						CHANNELS 3 Zrotation Xrotation Yrotation
						End Site
						{
							OFFSET	 0.000000	-0.001747	 0.077940
						}
					}
				}
				JOINT RightShoulder
				{
					OFFSET	-0.080363	 0.000306	 0.159706
					CHANNELS 3 Zrotation Xrotation Yrotation
					JOINT RightArm
					{
						OFFSET	 0.000000	 0.000000	 0.164196
						CHANNELS 3 Zrotation Xrotation Yrotation
						JOINT RightForeArm
						{
							OFFSET	 0.000000	 0.000000	 0.365611
							CHANNELS 3 Zrotation Xrotation Yrotation
							JOINT RightHand
							{
								OFFSET	 0.000000	 0.000000	 0.360648
								CHANNELS 3 Zrotation Xrotation Yrotation
								JOINT RightHandIndex1
								{
									OFFSET	 0.000000	 0.000000	 0.069977
									CHANNELS 3 Zrotation Xrotation Yrotation
									JOINT RightHandIndex2
									{
										OFFSET	 0.000000	 0.000000	 0.052305
										CHANNELS 3 Zrotation Xrotation Yrotation
										JOINT RightHandIndex3
										{
											OFFSET	 0.009002	-0.000782	 0.042196
											CHANNELS 3 Zrotation Xrotation Yrotation
											End Site
											{
												OFFSET	 0.009002	-0.000782	 0.042196
											}
										}
									}
								}
							}
						}
					}
				}
			}
		}
	}
}
MOTION
Frames:    12
Frame Time: 0.03333334
-0.031723	 0.259808	 1.026772	 3.707714	 32.849870	-8.985880	 60.173370	-74.641970	-128.550400	 6.122163	-69.650140	 6.133819	 70.198970	 73.309070	-81.329220	-2.385833	 28.452760	 0.000004	 45.130650	-83.588180	-129.985200	-17.346180	-74.577520	-11.773090	-31.756620	 77.516550	 57.251380	 2.384659	 28.388700	-0.000001	 23.983020	 14.726600	 0.439491	-1.419819	 18.312030	 0.364776	-6.696595	 1.426722	 4.991948	-99.231900	 68.210480	 156.565200	-0.481481	-12.444140	-47.698980	 0.938627	-0.761693	-5.424109	-34.477130	-18.803550	-21.676930	-2.027600	 6.559038	 9.033609	-5.188889	 0.308190	 3.541030	-5.234859	 0.342567	 0.430617	 0.589544	 18.798860	-6.590308	-5.565784	-27.848140	-3.250464	 97.521610	 64.664890	-159.110500	-11.451910	 5.742543	 65.780610	-15.833780	-3.222424	 20.909760	 18.722890	-18.457850	 16.886190	 1.803333	 3.979147	-15.098590	 4.898592	 3.004813	-9.310344	 5.224449	 0.395017	 2.014677
-0.028769	 0.257664	 1.043112	 3.389787	 31.679900	-8.372069	 53.285590	-72.704050	-135.847800	 5.088359	-67.297460	 5.080714	 68.168600	 73.230230	-78.723980	-2.385832	 28.452790	-0.000001	 24.278610	-81.792350	-150.146900	-16.005890	-72.167480	-10.349420	-30.560740	 77.269200	 55.670940	 2.384659	 28.388700	-0.000001	 20.118120	 14.308200	 0.296655	-1.199732	 18.278840	 0.119214	-6.689445	 0.611823	 4.623261	-98.968120	 68.279680	 157.271000	 0.179548	-10.200110	-48.181010	 4.231140	-1.403135	-6.956067	-34.200960	-20.394400	-22.056400	-2.027600	 6.559038	 9.033609	-5.188889	 0.308190	 3.541030	-5.234859	 0.342567	 0.430617	-0.022554	 15.277230	-5.089595	-5.894370	-24.317620	-3.713249	 97.335110	 64.502380	-159.758500	-12.597180	 6.020795	 63.221650	-17.608740	-5.248082	 26.696310	 18.019170	-19.848300	 17.966990	 1.803333	 3.979147	-15.098590	 4.898592	 3.004813	-9.310344	 5.224449	 0.395017	 2.014677
-0.025789	 0.254415	 1.060248	 3.238754	 30.447390	-7.830054	 47.269070	-70.432940	-142.137300	 4.440713	-64.719520	 4.393982	 65.329800	 73.113660	-75.424970	-2.385832	 28.452790	-0.000001	 11.056150	-79.181440	-162.492700	-14.944760	-69.585140	-9.193906	-29.129500	 76.966840	 53.801460	 2.384659	 28.388700	-0.000001	 15.828850	 13.819620	 0.179234	-0.917502	 18.222090	-0.146493	-6.753019	-0.252397	 4.217332	-98.476200	 68.784720	 158.044500	 0.881705	-7.524423	-48.975990	 7.485341	-2.171217	-8.374443	-34.102330	-22.324770	-22.749470	-2.027600	 6.559038	 9.033609	-5.188889	 0.308190	 3.541030	-5.234859	 0.342567	 0.430617	-0.519936	 10.965780	-4.051142	-6.014868	-20.033920	-3.736942	 97.079880	 64.089820	-160.800100	-13.933440	 5.848305	 61.072570	-19.032700	-7.637430	 32.289500	 16.928800	-21.118360	 19.000430	 1.803333	 3.979147	-15.098590	 4.898592	 3.004813	-9.310344	 5.224449	 0.395017	 2.014677
-0.022465	 0.250350	 1.077905	 3.055451	 29.107400	-7.158612	 42.310490	-67.842090	-147.514900	 3.917470	-62.025390	 3.829217	 62.596660	 73.005580	-72.146460	-2.385833	 28.452760	 0.000004	 2.457825	-75.999280	-170.208800	-14.178990	-66.781170	-8.311776	-27.383180	 76.713440	 51.615230	 2.384659	 28.388700	-0.000001	 11.043580	 13.249150	 0.031964	-0.719685	 18.285440	-0.356944	-6.817917	-1.392120	 3.734223	-97.654810	 69.930860	 158.904500	 1.783972	-4.235406	-49.826300	 10.620120	-3.046198	-9.674654	-34.161740	-24.450420	-23.915840	-2.027600	 6.559038	 9.033609	-5.188889	 0.308190	 3.541030	-5.234859	 0.342567	 0.430617	-0.895352	 5.586805	-2.904796	-6.182290	-14.776030	-3.876394	 96.754070	 64.246720	-161.516900	-15.437180	 6.782692	 59.058280	-20.550310	-10.522090	 37.500920	 15.734550	-22.541860	 19.636410	 1.803333	 3.979147	-15.098590	 4.898592	 3.004813	-9.310344	 5.224449	 0.395017	 2.014677
-0.019330	 0.245911	 1.095226	 2.845228	 27.704650	-6.413793	 38.259790	-65.111270	-152.078800	 3.655993	-59.304730	 3.503491	 59.610390	 72.908520	-68.685870	-2.385833	 28.452760	 0.000004	-3.333135	-72.539860	-175.148700	-13.711910	-63.860740	-7.700685	-25.570260	 76.414790	 49.422900	 2.384659	 28.388700	-0.000001	 6.089558	 12.719380	-0.107179	-0.497115	 18.411540	-0.599464	-6.874503	-2.621236	 3.288277	-96.386590	 71.955660	 159.712500	 2.716645	-0.267662	-51.142770	 13.614770	-3.972085	-10.822040	-34.495140	-26.829700	-25.135760	-2.027600	 6.559038	 9.033609	-5.188889	 0.308190	 3.541030	-5.234859	 0.342567	 0.430617	-1.162105	-0.109915	-2.299866	-6.203676	-9.262757	-3.576134	 96.131440	 65.276720	-162.294600	-16.936600	 8.719280	 58.009290	-21.833200	-13.581270	 42.053830	 14.825600	-24.590280	 20.199280	 1.803333	 3.979147	-15.098590	 4.898592	 3.004813	-9.310344	 5.224449	 0.395017	 2.014677
-0.016886	 0.240917	 1.111945	 2.615573	 26.218890	-5.669406	 34.816230	-62.249150	-156.097600	 3.599355	-56.587230	 3.353834	 56.223720	 72.866600	-64.940350	-2.385833	 28.452750	 0.000004	-7.484334	-68.892880	-178.471800	-13.084890	-60.924420	-6.948655	-24.421460	 76.095410	 47.741650	 2.384659	 28.388700	-0.000001	 1.112440	 12.236350	-0.173434	-0.207502	 18.550390	-0.867301	-6.928529	-3.906233	 2.886037	-94.745190	 74.516520	 160.413800	 3.786542	 4.013139	-52.950850	 16.432640	-4.916925	-11.823710	-34.867980	-29.382100	-26.336350	-2.027600	 6.559038	 9.033609	-5.188889	 0.308190	 3.541030	-5.234859	 0.342567	 0.430617	-1.394632	-6.130658	-2.230537	-6.166718	-3.504549	-2.888737	 95.301380	 66.889880	-163.147900	-18.436060	 11.157270	 57.710340	-22.782590	-16.668500	 46.104450	 14.084910	-27.126820	 20.615290	 1.803333	 3.979147	-15.098590	 4.898592	 3.004813	-9.310344	 5.224449	 0.395017	 2.014677
-0.015011	 0.234672	 1.128658	 2.443742	 24.654420	-4.954721	 31.602940	-59.213820	-159.859900	 3.599236	-53.740170	 3.303592	 52.051290	 72.805480	-60.492910	-2.385833	 28.452750	 0.000004	-10.594170	-65.015400	 179.270700	-11.741240	-57.902450	-5.593849	-23.893170	 75.839170	 46.148280	 2.384659	 28.388700	-0.000001	-3.928652	 11.719030	-0.177562	 0.140874	 18.755880	-1.203548	-6.986091	-5.321724	 2.530205	-92.887760	 77.122860	 161.046700	 5.176336	 8.076375	-55.142740	 19.137400	-5.873483	-12.698950	-34.989030	-32.053650	-27.546300	-2.027600	 6.559038	 9.033609	-5.188889	 0.308190	 3.541030	-5.234859	 0.342567	 0.430617	-1.656354	-12.794750	-2.597843	-6.187607	 2.771227	-1.927024	 94.416950	 68.651980	-164.034400	-20.020280	 13.502270	 57.547390	-23.222140	-19.782120	 50.173440	 13.278950	-29.869830	 20.709980	 1.803333	 3.979147	-15.098590	 4.898592	 3.004813	-9.310344	 5.224449	 0.395017	 2.014677
-0.012744	 0.226471	 1.145815	 2.758813	 23.357170	-4.389982	 29.470500	-56.028820	-162.369100	 3.737705	-50.595020	 3.174701	 48.414390	 72.528320	-56.380760	-2.385833	 28.452750	 0.000004	-13.048130	-61.145160	 177.925900	-10.259170	-54.686650	-4.175838	-22.008300	 75.482810	 43.128250	 2.384659	 28.388700	-0.000001	-8.734250	 10.717800	-0.446065	 0.355361	 18.499160	-1.415692	-7.020380	-6.711329	 1.858957	-93.699050	 75.694270	 162.778100	 6.520991	 9.142934	-55.526710	 21.663010	-6.786489	-13.436620	-33.876370	-34.236620	-28.666240	-2.027600	 6.559038	 9.033609	-5.188889	 0.308190	 3.541030	-5.234859	 0.342567	 0.430617	-1.668628	-14.238920	-1.380519	-6.223653	 4.289754	-2.455111	 93.936800	 69.360500	-164.854700	-21.565330	 15.750890	 56.094910	-23.289670	-22.780960	 54.019840	 12.048570	-32.216150	 20.438450	 1.803333	 3.979147	-15.098590	 4.898592	 3.004813	-9.310344	 5.224449	 0.395017	 2.014677
-0.011371	 0.217559	 1.161627	 2.997001	 22.084420	-3.805248	 27.329830	-52.928600	-164.910400	 3.679470	-47.645610	 3.029261	 44.435900	 72.294720	-51.972730	-2.385833	 28.452750	 0.000004	-15.111180	-57.249090	 176.948200	-8.956161	-51.557220	-2.985713	-20.426530	 75.106570	 40.294540	 2.384659	 28.388700	-0.000001	-13.320940	 9.669280	-0.531868	 0.629220	 18.083790	-1.519822	-7.103152	-8.038475	 1.247143	-94.210590	 74.424310	 164.195300	 8.045976	 9.950635	-55.678740	 23.956180	-7.616733	-14.034700	-32.251700	-36.361500	-28.814870	-2.027600	 6.559038	 9.033609	-5.188889	 0.308190	 3.541030	-5.234859	 0.342567	 0.430617	-1.742710	-15.001530	-0.988986	-6.176952	 5.206415	-2.431979	 93.941560	 68.325570	-166.015200	-22.998760	 16.661130	 54.471890	-23.050300	-25.411800	 57.383300	 10.409830	-34.109520	 19.980470	 1.803333	 3.979147	-15.098590	 4.898592	 3.004813	-9.310344	 5.224449	 0.395017	 2.014677
-0.010814	 0.207860	 1.175802	 3.206110	 20.794350	-3.131644	 25.494650	-49.901800	-167.289100	 3.650689	-45.016250	 2.879200	 40.532760	 72.138340	-47.612170	-2.385833	 28.452750	 0.000004	-16.931740	-53.287530	 176.160800	-7.765074	-48.560220	-1.963783	-19.225820	 74.870900	 37.767770	 2.384659	 28.388700	-0.000001	-17.649120	 8.584574	-0.561351	 0.937632	 17.459880	-1.560139	-7.223288	-9.248411	 0.622154	-94.575970	 73.121280	 165.534900	 9.632349	 10.530360	-55.725200	 26.058730	-8.357795	-14.516700	-30.044230	-38.399430	-27.966420	-2.027600	 6.559038	 9.033609	-5.188889	 0.308190	 3.541030	-5.234859	 0.342567	 0.430617	-1.824812	-15.243730	-0.883982	-6.115672	 5.721961	-2.240558	 94.032360	 66.471340	-167.427700	-24.443500	 16.934450	 53.348520	-22.868650	-27.612850	 59.854240	 8.472575	-35.737480	 19.226340	 1.803333	 3.979147	-15.098590	 4.898592	 3.004813	-9.310344	 5.224449	 0.395017	 2.014677
-0.010755	 0.197627	 1.188475	 3.395398	 19.537610	-2.393645	 23.918470	-47.032980	-169.505400	 3.580479	-42.630600	 2.709442	 36.855380	 72.008720	-43.436410	-2.385833	 28.452750	 0.000004	-18.476360	-49.359910	 175.529800	-6.666423	-45.618860	-1.086577	-18.304220	 74.755000	 35.510080	 2.384659	 28.388700	-0.000001	-21.439170	 7.488179	-0.588846	 1.221735	 16.546070	-1.599338	-7.346536	-10.174200	-0.000833	-94.823140	 71.747330	 166.837900	 11.034960	 10.906400	-55.809780	 27.890520	-8.963643	-14.880610	-27.344400	-40.198400	-26.229910	-2.027600	 6.559038	 9.033609	-5.188889	 0.308190	 3.541030	-5.234859	 0.342567	 0.430617	-1.856267	-15.040750	-0.671626	-6.079864	 5.930933	-2.184086	 93.931600	 64.809890	-168.745300	-25.776800	 17.283140	 52.406010	-22.567980	-29.513870	 62.068400	 6.398500	-37.208290	 18.147000	 1.803333	 3.979147	-15.098590	 4.898592	 3.004813	-9.310344	 5.224449	 0.395017	 2.014677
-0.010667	 0.186854	 1.199694	 3.554786	 18.026040	-1.661721	 22.691330	-44.000810	-171.564600	 3.440831	-40.485140	 2.506592	 34.016930	 72.115650	-39.979810	-2.385833	 28.452750	 0.000004	-19.639340	-45.260290	 175.247700	-5.529096	-42.788360	-0.260045	-17.502840	 74.863510	 33.271830	 2.384659	 28.388700	-0.000001	-24.661460	 6.547676	-0.622847	 1.352633	 15.375520	-1.712428	-7.403484	-10.582830	-0.411674	-94.792880	 70.921230	 168.057700	 12.088350	 11.482780	-56.212040	 29.439620	-9.419574	-15.135510	-24.528810	-41.702180	-24.163640	-2.027600	 6.559038	 9.033609	-5.188889	 0.308190	 3.541030	-5.234859	 0.342567	 0.430617	-1.866959	-14.410330	-0.631669	-6.070653	 5.866036	-2.137302	 93.653430	 64.302000	-169.742400	-26.948190	 18.515620	 51.733650	-22.162250	-31.258100	 64.256680	 4.402162	-38.779400	 17.003750	 1.803333	 3.979147	-15.098590	 4.898592	 3.004813	-9.310344	 5.224449	 0.395017	 2.014677
